<svg xmlns="http://www.w3.org/2000/svg" viewBox="0 0 100 100">
  <defs>
    <linearGradient id="grad" x1="0%" y1="0%" x2="100%" y2="100%">
      <stop offset="0%" style="stop-color:#4f46e5;stop-opacity:1" />
      <stop offset="100%" style="stop-color:#7c3aed;stop-opacity:1" />
    </linearGradient>
  </defs>
  <circle cx="50" cy="50" r="50" fill="url(#grad)" />
  <path d="M30,55 C30,45 40,35 60,35 C75,35 80,45 80,55 L80,65 C80,72 72,75 65,75 L30,75 C25,75 20,70 20,60 L20,55 Z" fill="white" />
  <path d="M60,35 L45,25 " stroke="white" stroke-width="4" stroke-linecap="round" />
  <path d="M40,75 L40,82 C40,84 42,86 44,86 L70,86 C72,86 74,84 74,82 L74,75" fill="none" stroke="white" stroke-width="4" />
</svg>
